# xmcd
#
# Track frame offsets:
#	150
#	17400
#	28405
#	43929
#	59462
#	79794
#	94942
#	108309
#	122981
#	136370
#	150012
#
# Disc length: 2265 seconds
#
# Revision: 0
# Processed by: cddbd v1.5.2PL0 Copyright (c) Steve Scherf et al.
# Submitted via: EasyCDDAExtractor 15.2.5.1
#
DISCID=8b08d70b
DTITLE=Izak and West - All Fired Up!
DYEAR=2003
DGENRE=country
TTITLE0=All Fired Up!
TTITLE1=Everything Was Fine Till Momma Got A mustang
TTITLE2=It Doesn't Matter To me
TTITLE3=Going Crazy on You
TTITLE4=Diamonds On That Mountain
TTITLE5=Get Out Of My EyesTeardrops
TTITLE6=It Must Be Good To Be Queen
TTITLE7=Aqui In Este Mundo (Here In This World)
TTITLE8=Trying To Remember To Forget
TTITLE9=Colorado Baby
TTITLE10=Stay With Me
EXTD=
EXTT0=
EXTT1=
EXTT2=
EXTT3=
EXTT4=
EXTT5=
EXTT6=
EXTT7=
EXTT8=
EXTT9=
EXTT10=
PLAYORDER=
